<svg xmlns="http://www.w3.org/2000/svg" width="24" height="24" viewBox="0 0 24 24" fill="none" stroke="#6b7c45" stroke-width="2" stroke-linecap="round" stroke-linejoin="round">
  <path d="M17 17c.6.6 1 1.4 1 2.3V20H6v-.7c0-.9.4-1.7 1-2.3" />
  <path d="M8 14v-5" />
  <path d="M16 9v5" />
  <path d="M13 3c.5 0 1 .2 1.4.6A2 2 0 0 1 15 5v1h-3V5c0-.5.2-1 .6-1.4.4-.4.9-.6 1.4-.6z" />
  <path d="M18 5V4c0-.5-.2-1-.6-1.4A2 2 0 0 0 16 2h-1.5" />
  <path d="M10 3H8.5c-.5 0-1 .2-1.4.6A2 2 0 0 0 6 5v4c0 1.1.9 2 2 2h1" />
  <path d="M15 11h1c1.1 0 2-.9 2-2V7.5" />
  <path d="M12 16a2 2 0 1 0 0-4 2 2 0 0 0 0 4z" />
</svg>

